<svg width="420" height="86" viewBox="0 0 420 86" fill="none" xmlns="http://www.w3.org/2000/svg">
<path d="M400.377 62.8252C399.851 62.8252 399.714 62.411 399.967 61.5825L407.53 36.9737C407.762 36.208 408.097 35.8252 408.532 35.8252H410.658C411.093 35.8252 411.427 36.208 411.66 36.9737L419.223 61.5825C419.476 62.411 419.339 62.8252 418.813 62.8252H417.264C416.727 62.8252 416.363 62.5176 416.17 61.9026L414.272 55.6704H404.918L403.019 61.9026C402.827 62.5176 402.463 62.8252 401.926 62.8252H400.377ZM405.874 52.5825H413.315L410.992 45.0511C410.779 44.3482 410.567 43.57 410.354 42.7164C410.152 41.8628 409.909 40.6516 409.625 39.0825H409.565C409.281 40.6516 409.033 41.8628 408.82 42.7164C408.618 43.57 408.41 44.3482 408.198 45.0511L405.874 52.5825Z" fill="#0B1F30"/>
<path d="M392.409 62.8252C391.903 62.8252 391.649 62.48 391.649 61.7896V36.8608C391.649 36.1704 391.903 35.8252 392.409 35.8252H393.806C394.312 35.8252 394.565 36.1704 394.565 36.8608V61.7896C394.565 62.48 394.312 62.8252 393.806 62.8252H392.409Z" fill="#0B1F30"/>
<path d="M369.499 62.8252C368.992 62.8252 368.739 62.48 368.739 61.7896V36.8608C368.739 36.1704 368.992 35.8252 369.499 35.8252H376.833C379.759 35.8252 381.875 36.503 383.181 37.8587C384.497 39.2143 385.155 41.003 385.155 43.2248C385.155 45.1829 384.624 46.8273 383.561 48.1578C382.508 49.4884 381.004 50.2541 379.05 50.4549V50.4925C380.083 51.4465 380.766 52.1746 381.101 52.6766C381.435 53.1662 381.809 53.8315 382.224 54.6725L385.656 61.5825C386.071 62.411 385.98 62.8252 385.383 62.8252H383.652C383.176 62.8252 382.822 62.5804 382.589 62.0909L379.43 55.3691C378.975 54.4026 378.322 53.4549 377.471 52.526C376.621 51.5972 375.563 51.1327 374.297 51.1327H371.655V61.7896C371.655 62.48 371.402 62.8252 370.896 62.8252H369.499ZM371.655 48.0449H376.044C378.018 48.0449 379.536 47.7248 380.599 47.0846C381.662 46.4319 382.194 45.07 382.194 42.9988C382.194 41.4172 381.708 40.344 380.736 39.7792C379.764 39.2018 378.443 38.9131 376.773 38.9131H371.655V48.0449Z" fill="#0B1F30"/>
<path d="M342.669 49.3246C342.669 44.9313 343.54 41.492 345.281 39.0066C347.032 36.5087 349.553 35.2598 352.844 35.2598C356.134 35.2598 358.65 36.5087 360.391 39.0066C362.142 41.492 363.018 44.9313 363.018 49.3246C363.018 53.7179 362.142 57.1635 360.391 59.6614C358.65 62.1468 356.134 63.3895 352.844 63.3895C349.553 63.3895 347.032 62.1468 345.281 59.6614C343.54 57.1635 342.669 53.7179 342.669 49.3246ZM345.782 49.3246C345.782 52.8393 346.364 55.5757 347.528 57.5338C348.693 59.4794 350.464 60.4522 352.844 60.4522C355.223 60.4522 356.994 59.4794 358.159 57.5338C359.323 55.5757 359.905 52.8393 359.905 49.3246C359.905 45.81 359.323 43.0798 358.159 41.1342C356.994 39.1761 355.223 38.197 352.844 38.197C350.464 38.197 348.693 39.1761 347.528 41.1342C346.364 43.0798 345.782 45.81 345.782 49.3246Z" fill="#0B1F30"/>
<path d="M322.082 39.0637C321.525 39.0637 321.247 38.7813 321.247 38.2164V36.6725C321.247 36.1076 321.525 35.8252 322.082 35.8252H338.149C338.706 35.8252 338.984 36.1076 338.984 36.6725V38.2164C338.984 38.7813 338.706 39.0637 338.149 39.0637H331.573V61.7896C331.573 62.48 331.32 62.8252 330.814 62.8252H329.417C328.911 62.8252 328.658 62.48 328.658 61.7896V39.0637H322.082Z" fill="#0B1F30"/>
<path d="M308.724 62.8252C308.218 62.8252 307.965 62.48 307.965 61.7896V36.8608C307.965 36.1704 308.218 35.8252 308.724 35.8252H310.121C310.627 35.8252 310.881 36.1704 310.881 36.8608V59.7373H320.949C321.506 59.7373 321.784 60.0197 321.784 60.5846V61.9779C321.784 62.5427 321.506 62.8252 320.949 62.8252H308.724Z" fill="#0B1F30"/>
<path d="M284.933 52.526V36.8608C284.933 36.1704 285.186 35.8252 285.692 35.8252H287.089C287.595 35.8252 287.848 36.1704 287.848 36.8608V51.9612C287.848 55.4758 288.248 57.7729 289.048 58.8524C289.858 59.9193 291.174 60.4528 292.996 60.4528C294.819 60.4528 296.13 59.9193 296.929 58.8524C297.739 57.7729 298.144 55.4758 298.144 51.9612V36.8608C298.144 36.1704 298.397 35.8252 298.904 35.8252H300.301C300.807 35.8252 301.06 36.1704 301.06 36.8608V52.526C301.06 56.5051 300.321 59.3105 298.843 60.9423C297.375 62.5741 295.426 63.39 292.996 63.39C290.567 63.39 288.613 62.5741 287.135 60.9423C285.667 59.3105 284.933 56.5051 284.933 52.526Z" fill="#0B1F30"/>
<path d="M264.542 60.7911C264.005 60.1886 263.864 59.6614 264.117 59.2095L264.906 57.7974C265.18 57.3079 265.62 57.3455 266.228 57.9104C267.027 58.651 267.858 59.2598 268.718 59.7367C269.589 60.2137 270.642 60.4522 271.877 60.4522C272.788 60.4522 273.557 60.2828 274.185 59.9439C274.813 59.6049 275.314 59.1217 275.688 58.4941C276.073 57.8539 276.266 57.0819 276.266 56.1782C276.266 55.5254 276.185 54.9229 276.023 54.3706C275.871 53.8058 275.623 53.3351 275.278 52.9585C274.934 52.5819 274.575 52.287 274.2 52.0736C273.583 51.7221 272.656 51.3142 271.421 50.8497C270.196 50.3853 269.123 49.8832 268.202 49.3434C267.291 48.8037 266.562 48.151 266.015 47.3853C265.478 46.6196 265.119 45.8351 264.937 45.0317C264.765 44.2158 264.679 43.287 264.679 42.2451C264.679 40.651 265.053 39.2765 265.802 38.1217C266.552 36.9669 267.468 36.2012 268.551 35.8246C269.644 35.4481 270.753 35.2598 271.877 35.2598C273.163 35.2598 274.281 35.4669 275.233 35.8811C276.185 36.2953 277.035 36.8351 277.784 37.5004C278.311 37.9648 278.432 38.4543 278.149 38.969L277.374 40.3434C277.141 40.7577 276.686 40.6698 276.007 40.0798C275.491 39.628 274.858 39.2075 274.109 38.8183C273.37 38.4167 272.636 38.2158 271.907 38.2158C270.976 38.2158 270.201 38.3539 269.584 38.6301C268.966 38.8937 268.48 39.3455 268.126 39.9857C267.772 40.6259 267.594 41.3665 267.594 42.2075C267.594 42.7347 267.635 43.2242 267.716 43.6761C267.797 44.1154 268.004 44.5673 268.338 45.0317C268.673 45.4962 269.078 45.8539 269.553 46.1049C270.191 46.4439 271.178 46.8455 272.515 47.31C273.861 47.7619 275.035 48.3204 276.038 48.9857C276.969 49.6008 277.637 50.2472 278.042 50.925C278.457 51.5903 278.776 52.3183 278.999 53.1091C279.232 53.8874 279.348 54.766 279.348 55.7451C279.348 57.5275 278.979 59.015 278.24 60.2075C277.501 61.3999 276.625 62.2284 275.613 62.6928C274.6 63.1572 273.33 63.3895 271.801 63.3895C269.968 63.3895 268.45 63.1259 267.245 62.5987C266.04 62.0715 265.139 61.469 264.542 60.7911Z" fill="#0B1F30"/>
<path d="M241.783 62.8252C241.277 62.8252 241.023 62.48 241.023 61.7896V36.8608C241.023 36.1704 241.277 35.8252 241.783 35.8252H243.727C244.435 35.8252 244.941 36.139 245.245 36.7666L254.751 56.5177H254.812C254.792 56.0156 254.782 55.5135 254.782 55.0114V36.8608C254.782 36.1704 255.035 35.8252 255.541 35.8252H256.938C257.444 35.8252 257.698 36.1704 257.698 36.8608V61.7896C257.698 62.48 257.444 62.8252 256.938 62.8252H255.602C254.893 62.8252 254.387 62.5114 254.083 61.8838L243.97 40.9277H243.909C243.929 41.4298 243.939 41.9319 243.939 42.434V61.7896C243.939 62.48 243.686 62.8252 243.18 62.8252H241.783Z" fill="#0B1F30"/>
<path d="M214.954 49.3246C214.954 44.9313 215.825 41.492 217.566 39.0066C219.318 36.5087 221.838 35.2598 225.129 35.2598C228.419 35.2598 230.935 36.5087 232.676 39.0066C234.427 41.492 235.303 44.9313 235.303 49.3246C235.303 53.7179 234.427 57.1635 232.676 59.6614C230.935 62.1468 228.419 63.3895 225.129 63.3895C221.838 63.3895 219.318 62.1468 217.566 59.6614C215.825 57.1635 214.954 53.7179 214.954 49.3246ZM218.067 49.3246C218.067 52.8393 218.649 55.5757 219.814 57.5338C220.978 59.4794 222.75 60.4522 225.129 60.4522C227.508 60.4522 229.279 59.4794 230.444 57.5338C231.608 55.5757 232.19 52.8393 232.19 49.3246C232.19 45.81 231.608 43.0798 230.444 41.1342C229.279 39.1761 227.508 38.197 225.129 38.197C222.75 38.197 220.978 39.1761 219.814 41.1342C218.649 43.0798 218.067 45.81 218.067 49.3246Z" fill="#0B1F30"/>
<path d="M191.922 49.3246C191.922 44.9313 192.798 41.492 194.549 39.0066C196.311 36.5087 198.837 35.2598 202.127 35.2598C204.05 35.2598 205.64 35.6677 206.895 36.4836C208.151 37.287 209.052 38.3916 209.598 39.7974C209.882 40.5255 209.836 41.0275 209.462 41.3037L208.262 42.1698C207.857 42.4585 207.498 42.22 207.184 41.4543C206.85 40.6635 206.303 39.9229 205.544 39.2326C204.784 38.5422 203.696 38.197 202.279 38.197C199.748 38.197 197.905 39.1761 196.751 41.1342C195.607 43.0798 195.035 45.81 195.035 49.3246C195.035 52.8393 195.607 55.5757 196.751 57.5338C197.905 59.4794 199.748 60.4522 202.279 60.4522C203.737 60.4522 204.901 60.038 205.771 59.2095C206.652 58.3811 207.29 57.515 207.685 56.6112C207.999 55.8832 208.363 55.6635 208.778 55.9522L210.039 56.8372C210.403 57.1008 210.433 57.6028 210.13 58.3434C209.532 59.787 208.561 60.992 207.214 61.9585C205.868 62.9125 204.172 63.3895 202.127 63.3895C198.837 63.3895 196.311 62.1468 194.549 59.6614C192.798 57.1635 191.922 53.7179 191.922 49.3246Z" fill="#0B1F30"/>
<path d="M160.618 60.7911C160.082 60.1886 159.94 59.6614 160.193 59.2095L160.983 57.7974C161.256 57.3079 161.696 57.3455 162.304 57.9104C163.104 58.651 163.934 59.2598 164.794 59.7367C165.665 60.2137 166.718 60.4522 167.953 60.4522C168.864 60.4522 169.634 60.2828 170.261 59.9439C170.889 59.6049 171.39 59.1217 171.765 58.4941C172.149 57.8539 172.342 57.0819 172.342 56.1782C172.342 55.5254 172.261 54.9229 172.099 54.3706C171.947 53.8058 171.699 53.3351 171.355 52.9585C171.01 52.5819 170.651 52.287 170.276 52.0736C169.659 51.7221 168.733 51.3142 167.497 50.8497C166.272 50.3853 165.199 49.8832 164.278 49.3434C163.367 48.8037 162.638 48.151 162.091 47.3853C161.555 46.6196 161.195 45.8351 161.013 45.0317C160.841 44.2158 160.755 43.287 160.755 42.2451C160.755 40.651 161.129 39.2765 161.879 38.1217C162.628 36.9669 163.544 36.2012 164.627 35.8246C165.721 35.4481 166.829 35.2598 167.953 35.2598C169.239 35.2598 170.357 35.4669 171.309 35.8811C172.261 36.2953 173.111 36.8351 173.86 37.5004C174.387 37.9648 174.508 38.4543 174.225 38.969L173.45 40.3434C173.217 40.7577 172.762 40.6698 172.084 40.0798C171.567 39.628 170.934 39.2075 170.185 38.8183C169.446 38.4167 168.712 38.2158 167.983 38.2158C167.052 38.2158 166.277 38.3539 165.66 38.6301C165.042 38.8937 164.556 39.3455 164.202 39.9857C163.848 40.6259 163.671 41.3665 163.671 42.2075C163.671 42.7347 163.711 43.2242 163.792 43.6761C163.873 44.1154 164.081 44.5673 164.415 45.0317C164.749 45.4962 165.154 45.8539 165.63 46.1049C166.267 46.4439 167.254 46.8455 168.591 47.31C169.937 47.7619 171.112 48.3204 172.114 48.9857C173.045 49.6008 173.713 50.2472 174.118 50.925C174.534 51.5903 174.852 52.3183 175.075 53.1091C175.308 53.8874 175.424 54.766 175.424 55.7451C175.424 57.5275 175.055 59.015 174.316 60.2075C173.577 61.3999 172.701 62.2284 171.689 62.6928C170.676 63.1572 169.406 63.3895 167.877 63.3895C166.045 63.3895 164.526 63.1259 163.321 62.5987C162.117 62.0715 161.215 61.469 160.618 60.7911Z" fill="#0B1F30"/>
<path d="M133.759 62.8252C133.253 62.8252 133 62.48 133 61.7896V36.8608C133 36.1704 133.253 35.8252 133.759 35.8252H136.994C137.379 35.8252 137.667 36.2018 137.859 36.9549L142.203 53.844C142.648 55.5762 142.911 56.6243 142.992 56.9884C143.073 57.3398 143.19 57.9925 143.342 58.9465H143.433C143.585 57.9925 143.701 57.3398 143.782 56.9884C143.863 56.6243 144.126 55.5762 144.572 53.844L148.915 36.9549C149.107 36.2018 149.396 35.8252 149.78 35.8252H153.015C153.521 35.8252 153.774 36.1704 153.774 36.8608V61.7896C153.774 62.48 153.521 62.8252 153.015 62.8252H151.618C151.112 62.8252 150.859 62.48 150.859 61.7896V42.0386C150.859 41.5365 150.869 41.0344 150.889 40.5323H150.828L145.225 61.6766C145.022 62.4423 144.688 62.8252 144.222 62.8252H142.552C142.086 62.8252 141.752 62.4423 141.55 61.6766L135.946 40.5323H135.885C135.906 41.0344 135.916 41.5365 135.916 42.0386V61.7896C135.916 62.48 135.663 62.8252 135.156 62.8252H133.759Z" fill="#0B1F30"/>
<path d="M13.9003 85.9999H0V12.5811H13.9003L81.3167 66.0079V85.9999H22.5185V44.1201L36.0018 56.0119V75.6592H66.7214V70.3165L13.9003 28.6091V85.9999Z" fill="#0B1F30"/>
<path d="M89.5177 28.0922V86H103.557V11.7194H89.5177L66.0262 31.1944L40.8666 10.8577H66.9992V22.0601L81.1775 10.8577V0H22.2402V11.7194L66.0262 46.8778L89.5177 28.0922Z" fill="#0B1F30"/>
</svg>
