<svg width="373" height="294" viewBox="0 0 373 294" fill="none" xmlns="http://www.w3.org/2000/svg">
<path d="M347.706 293C347.029 293 346.853 292.57 347.179 291.711L356.905 266.184C357.205 265.389 357.634 264.992 358.194 264.992H360.929C361.488 264.992 361.918 265.389 362.218 266.184L371.944 291.711C372.27 292.57 372.094 293 371.417 293H369.425C368.735 293 368.266 292.681 368.018 292.043L365.577 285.578H353.546L351.104 292.043C350.857 292.681 350.388 293 349.698 293H347.706ZM354.776 282.375H364.347L361.358 274.562C361.085 273.833 360.811 273.026 360.538 272.141C360.278 271.255 359.965 269.999 359.6 268.371H359.522C359.158 269.999 358.839 271.255 358.565 272.141C358.305 273.026 358.038 273.833 357.764 274.562L354.776 282.375Z" fill="white"/>
<path d="M337.458 293C336.807 293 336.481 292.642 336.481 291.926V266.066C336.481 265.35 336.807 264.992 337.458 264.992H339.255C339.906 264.992 340.231 265.35 340.231 266.066V291.926C340.231 292.642 339.906 293 339.255 293H337.458Z" fill="white"/>
<path d="M307.992 293C307.341 293 307.015 292.642 307.015 291.926V266.066C307.015 265.35 307.341 264.992 307.992 264.992H317.425C321.188 264.992 323.91 265.695 325.589 267.102C327.282 268.508 328.128 270.363 328.128 272.668C328.128 274.699 327.445 276.405 326.078 277.785C324.723 279.165 322.79 279.96 320.277 280.168V280.207C321.605 281.197 322.484 281.952 322.914 282.473C323.343 282.98 323.825 283.671 324.359 284.543L328.773 291.711C329.307 292.57 329.19 293 328.421 293H326.195C325.583 293 325.127 292.746 324.828 292.238L320.765 285.266C320.179 284.263 319.339 283.28 318.246 282.316C317.152 281.353 315.791 280.871 314.164 280.871H310.765V291.926C310.765 292.642 310.44 293 309.789 293H307.992ZM310.765 277.668H316.41C318.949 277.668 320.902 277.336 322.269 276.672C323.636 275.995 324.32 274.582 324.32 272.434C324.32 270.793 323.695 269.68 322.445 269.094C321.195 268.495 319.496 268.195 317.347 268.195H310.765V277.668Z" fill="white"/>
<path d="M273.486 278.996C273.486 274.439 274.606 270.871 276.845 268.293C279.098 265.702 282.34 264.406 286.572 264.406C290.804 264.406 294.039 265.702 296.279 268.293C298.531 270.871 299.658 274.439 299.658 278.996C299.658 283.553 298.531 287.128 296.279 289.719C294.039 292.297 290.804 293.586 286.572 293.586C282.34 293.586 279.098 292.297 276.845 289.719C274.606 287.128 273.486 283.553 273.486 278.996ZM277.49 278.996C277.49 282.642 278.238 285.48 279.736 287.512C281.233 289.53 283.512 290.539 286.572 290.539C289.632 290.539 291.91 289.53 293.408 287.512C294.905 285.48 295.654 282.642 295.654 278.996C295.654 275.35 294.905 272.518 293.408 270.5C291.91 268.469 289.632 267.453 286.572 267.453C283.512 267.453 281.233 268.469 279.736 270.5C278.238 272.518 277.49 275.35 277.49 278.996Z" fill="white"/>
<path d="M247.008 268.352C246.292 268.352 245.934 268.059 245.934 267.473V265.871C245.934 265.285 246.292 264.992 247.008 264.992H267.672C268.388 264.992 268.746 265.285 268.746 265.871V267.473C268.746 268.059 268.388 268.352 267.672 268.352H259.215V291.926C259.215 292.642 258.889 293 258.238 293H256.441C255.79 293 255.465 292.642 255.465 291.926V268.352H247.008Z" fill="white"/>
<path d="M229.826 293C229.175 293 228.85 292.642 228.85 291.926V266.066C228.85 265.35 229.175 264.992 229.826 264.992H231.623C232.274 264.992 232.6 265.35 232.6 266.066V289.797H245.549C246.265 289.797 246.623 290.09 246.623 290.676V292.121C246.623 292.707 246.265 293 245.549 293H229.826Z" fill="white"/>
<path d="M199.227 282.316V266.066C199.227 265.35 199.553 264.992 200.204 264.992H202C202.652 264.992 202.977 265.35 202.977 266.066V281.73C202.977 285.376 203.491 287.759 204.52 288.879C205.562 289.986 207.254 290.539 209.598 290.539C211.942 290.539 213.628 289.986 214.657 288.879C215.698 287.759 216.219 285.376 216.219 281.73V266.066C216.219 265.35 216.545 264.992 217.196 264.992H218.993C219.644 264.992 219.969 265.35 219.969 266.066V282.316C219.969 286.444 219.019 289.354 217.118 291.047C215.23 292.74 212.723 293.586 209.598 293.586C206.473 293.586 203.96 292.74 202.059 291.047C200.171 289.354 199.227 286.444 199.227 282.316Z" fill="white"/>
<path d="M173.003 290.891C172.313 290.266 172.13 289.719 172.456 289.25L173.471 287.785C173.823 287.277 174.389 287.316 175.171 287.902C176.199 288.671 177.267 289.302 178.374 289.797C179.494 290.292 180.848 290.539 182.436 290.539C183.608 290.539 184.598 290.363 185.405 290.012C186.212 289.66 186.857 289.159 187.339 288.508C187.833 287.844 188.081 287.043 188.081 286.105C188.081 285.428 187.977 284.803 187.768 284.23C187.573 283.645 187.254 283.156 186.811 282.766C186.369 282.375 185.906 282.069 185.425 281.848C184.63 281.483 183.439 281.06 181.85 280.578C180.275 280.096 178.895 279.576 177.71 279.016C176.538 278.456 175.6 277.779 174.897 276.984C174.207 276.19 173.745 275.376 173.511 274.543C173.289 273.697 173.178 272.733 173.178 271.652C173.178 269.999 173.66 268.573 174.624 267.375C175.587 266.177 176.766 265.383 178.159 264.992C179.565 264.602 180.991 264.406 182.436 264.406C184.09 264.406 185.529 264.621 186.753 265.051C187.977 265.48 189.07 266.04 190.034 266.73C190.711 267.212 190.867 267.72 190.503 268.254L189.507 269.68C189.207 270.109 188.621 270.018 187.749 269.406C187.085 268.938 186.271 268.501 185.307 268.098C184.357 267.681 183.413 267.473 182.475 267.473C181.277 267.473 180.281 267.616 179.487 267.902C178.693 268.176 178.068 268.645 177.612 269.309C177.156 269.973 176.928 270.741 176.928 271.613C176.928 272.16 176.981 272.668 177.085 273.137C177.189 273.592 177.456 274.061 177.886 274.543C178.315 275.025 178.836 275.396 179.448 275.656C180.268 276.008 181.538 276.424 183.257 276.906C184.988 277.375 186.499 277.954 187.788 278.645C188.986 279.283 189.845 279.953 190.366 280.656C190.9 281.346 191.31 282.102 191.596 282.922C191.896 283.729 192.046 284.641 192.046 285.656C192.046 287.505 191.57 289.048 190.62 290.285C189.669 291.522 188.543 292.382 187.241 292.863C185.939 293.345 184.305 293.586 182.339 293.586C179.982 293.586 178.029 293.312 176.479 292.766C174.93 292.219 173.771 291.594 173.003 290.891Z" fill="white"/>
<path d="M143.731 293C143.08 293 142.755 292.642 142.755 291.926V266.066C142.755 265.35 143.08 264.992 143.731 264.992H146.231C147.143 264.992 147.794 265.318 148.185 265.969L160.411 286.457H160.489C160.463 285.936 160.45 285.415 160.45 284.895V266.066C160.45 265.35 160.776 264.992 161.427 264.992H163.224C163.875 264.992 164.2 265.35 164.2 266.066V291.926C164.2 292.642 163.875 293 163.224 293H161.505C160.593 293 159.942 292.674 159.552 292.023L146.544 270.285H146.466C146.492 270.806 146.505 271.327 146.505 271.848V291.926C146.505 292.642 146.179 293 145.528 293H143.731Z" fill="white"/>
<path d="M109.226 278.996C109.226 274.439 110.345 270.871 112.585 268.293C114.838 265.702 118.08 264.406 122.312 264.406C126.543 264.406 129.779 265.702 132.019 268.293C134.271 270.871 135.397 274.439 135.397 278.996C135.397 283.553 134.271 287.128 132.019 289.719C129.779 292.297 126.543 293.586 122.312 293.586C118.08 293.586 114.838 292.297 112.585 289.719C110.345 287.128 109.226 283.553 109.226 278.996ZM113.229 278.996C113.229 282.642 113.978 285.48 115.476 287.512C116.973 289.53 119.252 290.539 122.312 290.539C125.371 290.539 127.65 289.53 129.147 287.512C130.645 285.48 131.394 282.642 131.394 278.996C131.394 275.35 130.645 272.518 129.147 270.5C127.65 268.469 125.371 267.453 122.312 267.453C119.252 267.453 116.973 268.469 115.476 270.5C113.978 272.518 113.229 275.35 113.229 278.996Z" fill="white"/>
<path d="M79.603 278.996C79.603 274.439 80.7293 270.871 82.9819 268.293C85.2476 265.702 88.4963 264.406 92.728 264.406C95.202 264.406 97.2463 264.829 98.8608 265.676C100.475 266.509 101.634 267.655 102.337 269.113C102.702 269.868 102.643 270.389 102.162 270.676L100.619 271.574C100.098 271.874 99.6356 271.626 99.2319 270.832C98.8022 270.012 98.0991 269.243 97.1226 268.527C96.146 267.811 94.7463 267.453 92.9233 267.453C89.6681 267.453 87.2983 268.469 85.814 270.5C84.3426 272.518 83.6069 275.35 83.6069 278.996C83.6069 282.642 84.3426 285.48 85.814 287.512C87.2983 289.53 89.6681 290.539 92.9233 290.539C94.7983 290.539 96.2957 290.109 97.4155 289.25C98.5483 288.391 99.3687 287.492 99.8765 286.555C100.28 285.799 100.749 285.572 101.283 285.871L102.904 286.789C103.373 287.062 103.412 287.583 103.021 288.352C102.253 289.849 101.003 291.099 99.271 292.102C97.5392 293.091 95.3582 293.586 92.728 293.586C88.4963 293.586 85.2476 292.297 82.9819 289.719C80.7293 287.128 79.603 283.553 79.603 278.996Z" fill="white"/>
<path d="M39.3416 290.891C38.6515 290.266 38.4692 289.719 38.7947 289.25L39.8103 287.785C40.1619 287.277 40.7283 287.316 41.5095 287.902C42.5382 288.671 43.6059 289.302 44.7127 289.797C45.8324 290.292 47.1866 290.539 48.7752 290.539C49.947 290.539 50.9366 290.363 51.7439 290.012C52.5512 289.66 53.1957 289.159 53.6775 288.508C54.1723 287.844 54.4197 287.043 54.4197 286.105C54.4197 285.428 54.3155 284.803 54.1072 284.23C53.9119 283.645 53.5929 283.156 53.1502 282.766C52.7074 282.375 52.2452 282.069 51.7634 281.848C50.9692 281.483 49.7778 281.06 48.1892 280.578C46.6137 280.096 45.2335 279.576 44.0486 279.016C42.8767 278.456 41.9392 277.779 41.2361 276.984C40.546 276.19 40.0837 275.376 39.8494 274.543C39.628 273.697 39.5173 272.733 39.5173 271.652C39.5173 269.999 39.9991 268.573 40.9627 267.375C41.9262 266.177 43.1046 265.383 44.4978 264.992C45.9041 264.602 47.3298 264.406 48.7752 264.406C50.4288 264.406 51.8676 264.621 53.0916 265.051C54.3155 265.48 55.4093 266.04 56.3728 266.73C57.0499 267.212 57.2061 267.72 56.8416 268.254L55.8455 269.68C55.546 270.109 54.96 270.018 54.0877 269.406C53.4236 268.938 52.6098 268.501 51.6462 268.098C50.6957 267.681 49.7517 267.473 48.8142 267.473C47.6163 267.473 46.6202 267.616 45.8259 267.902C45.0317 268.176 44.4067 268.645 43.9509 269.309C43.4952 269.973 43.2673 270.741 43.2673 271.613C43.2673 272.16 43.3194 272.668 43.4236 273.137C43.5278 273.592 43.7947 274.061 44.2244 274.543C44.6541 275.025 45.1749 275.396 45.7869 275.656C46.6072 276.008 47.8767 276.424 49.5955 276.906C51.3272 277.375 52.8377 277.954 54.1267 278.645C55.3246 279.283 56.184 279.953 56.7048 280.656C57.2387 281.346 57.6488 282.102 57.9353 282.922C58.2348 283.729 58.3845 284.641 58.3845 285.656C58.3845 287.505 57.9093 289.048 56.9587 290.285C56.0082 291.522 54.8819 292.382 53.5798 292.863C52.2778 293.345 50.6436 293.586 48.6775 293.586C46.3207 293.586 44.3676 293.312 42.8181 292.766C41.2686 292.219 40.1098 291.594 39.3416 290.891Z" fill="white"/>
<path d="M4.79688 293C4.14583 293 3.82031 292.642 3.82031 291.926V266.066C3.82031 265.35 4.14583 264.992 4.79688 264.992H8.95703C9.45182 264.992 9.82292 265.383 10.0703 266.164L15.6562 283.684C16.2292 285.48 16.5677 286.568 16.6719 286.945C16.776 287.31 16.9258 287.987 17.1211 288.977H17.2383C17.4336 287.987 17.5833 287.31 17.6875 286.945C17.7917 286.568 18.1302 285.48 18.7031 283.684L24.2891 266.164C24.5365 265.383 24.9076 264.992 25.4023 264.992H29.5625C30.2135 264.992 30.5391 265.35 30.5391 266.066V291.926C30.5391 292.642 30.2135 293 29.5625 293H27.7656C27.1146 293 26.7891 292.642 26.7891 291.926V271.438C26.7891 270.917 26.8021 270.396 26.8281 269.875H26.75L19.543 291.809C19.2826 292.603 18.8529 293 18.2539 293H16.1055C15.5065 293 15.0768 292.603 14.8164 291.809L7.60938 269.875H7.53125C7.55729 270.396 7.57031 270.917 7.57031 271.438V291.926C7.57031 292.642 7.24479 293 6.59375 293H4.79688Z" fill="white"/>
<path d="M50 249.5H0V36.5H50L292.5 191.5V249.5H81V128L129.5 162.5V219.5H240V204L50 83V249.5Z" fill="white"/>
<path d="M322 81.5V249.5H372.5V34H322L237.5 90.5L147 31.5H241V64L292 31.5V0H80V34L237.5 136L322 81.5Z" fill="white"/>
</svg>
